<?xml version="1.0" encoding="UTF-8"?>
<svg id="Layer_2" data-name="Layer 2" xmlns="http://www.w3.org/2000/svg" xmlns:xlink="http://www.w3.org/1999/xlink" viewBox="0 0 474.68 162.94">
  <defs>
    <style>
      .cls-1, .cls-2, .cls-3, .cls-4 {
        fill: #fff;
      }

      .cls-1, .cls-5, .cls-6, .cls-7 {
        fill-rule: evenodd;
      }

      .cls-2 {
        font-size: 62.7px;
      }

      .cls-2, .cls-8 {
        font-family: Gotham-Black, 'Gotham Black';
        font-weight: 800;
      }

      .cls-5 {
        fill: #112644;
      }

      .cls-6, .cls-8 {
        fill: #90b73b;
      }

      .cls-7 {
        fill: url(#linear-gradient);
      }

      .cls-4 {
        font-family: Gotham-Book, Gotham;
        font-size: 16px;
      }

      .cls-8 {
        font-size: 61.65px;
      }
    </style>
    <linearGradient id="linear-gradient" x1="159.74" y1="42.64" x2="159.79" y2="42.64" gradientUnits="userSpaceOnUse">
      <stop offset="0" stop-color="#17b2f3"/>
      <stop offset="1" stop-color="#b11dcf"/>
    </linearGradient>
  </defs>
  <g id="Layer_1-2" data-name="Layer 1">
    <g>
      <text class="cls-8" transform="translate(214.01 122.93)"><tspan x="0" y="0">PLANET</tspan></text>
      <text class="cls-2" transform="translate(213.1 65.53)"><tspan x="0" y="0">SPORTS</tspan></text>
      <text class="cls-4" transform="translate(213.66 153.98)"><tspan x="0" y="0">GATE TO THE WORLDWIDE</tspan></text>
      <path class="cls-1" d="M160.64,42.41c-.29.07-.57.14-.85.22.13-.09.46-.17.83-.26,0,.02.01.03.02.04Z"/>
      <g id="pBLcKS">
        <g>
          <path d="M78.81,105.69c0-.1.21-.13.29-.15,12.1-3.67,24.07-9.43,33.34-18.15,1.18-1.11,2.27-2.31,3.36-3.5l.03-.1c-.15-.13-.24-.3-.37-.45-.94-1.08-2.21-2.21-3.26-3.19-4-3.73-8.46-6.95-13.19-9.7-6.57-3.83-13.7-6.68-21.08-8.57l.11-.13,3.99.47c11.94,1.75,23.6,5.6,33.82,12.03,4.11,2.58,7.79,5.49,11.39,8.72.14.12.93.74.95.82s-.05.12-.1.16c-.24.23-.57.45-.82.68-4.88,4.4-9.83,8.13-15.68,11.22-9.49,5.02-21.37,8.73-32.07,9.77-.22.02-.46.11-.72.06Z"/>
          <path d="M77.8,81.43h15.51s.31.18.31.18l1.94,1.94v.14s-1.8,1.73-1.8,1.73l-.38.24-15.59.03-4.78,10.43c-2.97,1.27-6.09,2.16-9.17,3.05l-.03-.03c-.19-.43-.37-.87-.53-1.31-2.68-7.37-3.25-15.06-1.9-22.79.4-2.27.97-4.5,1.62-6.71.12,0,.24-.01.37,0,2.36.23,4.86.84,7.1,1.59.87.29,1.73.61,2.58.95,1.51,3.55,3.11,7.07,4.76,10.56ZM70.03,73.64l-4.02-1.17c-.1.02-.26.66-.29.8-1.68,6.25-1.68,13.78.07,20,.13.45.32.88.39,1.34l3.84-1.15c1.53-3.29,3.04-6.61,4.71-9.83-1.58-3.32-3.23-6.62-4.69-10Z"/>
          <path d="M69.16,102.56c-.03-.17.03-.12.14-.17,1.43-.62,3.1-.99,4.55-1.63,5.76-2.35,11.33-5.27,16.27-9.07,2.26-1.73,4.43-3.65,6.28-5.81.59-.68,1.11-1.42,1.7-2.11-.47-.58-.89-1.19-1.36-1.77-2.5-3.05-5.74-5.88-8.97-8.15-6.06-4.25-12.97-7.19-20.1-9.14l.1-.12c.9.14,1.81.2,2.71.33,9.49,1.37,18.97,4.83,27.1,9.86,4.2,2.6,8.09,5.67,11.79,8.93.03.1-.01.13-.06.2-.08.11-.36.36-.48.47-9.76,9.09-22.6,14.96-35.63,17.55l-4.04.62Z"/>
        </g>
        <g>
          <path class="cls-1" d="M78.81,105.69c0-.1.21-.13.29-.15,12.1-3.67,24.07-9.43,33.34-18.15,1.18-1.11,2.27-2.31,3.36-3.5l.03-.1c-.15-.13-.24-.3-.37-.45-.94-1.08-2.21-2.21-3.26-3.19-4-3.73-8.46-6.95-13.19-9.7-6.57-3.83-13.7-6.68-21.08-8.57l.11-.13,3.99.47c11.94,1.75,23.6,5.6,33.82,12.03,4.11,2.58,7.79,5.49,11.39,8.72.14.12.93.74.95.82s-.05.12-.1.16c-.24.23-.57.45-.82.68-4.88,4.4-9.83,8.13-15.68,11.22-9.49,5.02-21.37,8.73-32.07,9.77-.22.02-.46.11-.72.06Z"/>
          <path class="cls-1" d="M77.8,81.43h15.51s.31.18.31.18l1.94,1.94v.14s-1.8,1.73-1.8,1.73l-.38.24-15.59.03-4.78,10.43c-2.97,1.27-6.09,2.16-9.17,3.05l-.03-.03c-.19-.43-.37-.87-.53-1.31-2.68-7.37-3.25-15.06-1.9-22.79.4-2.27.97-4.5,1.62-6.71.12,0,.24-.01.37,0,2.36.23,4.86.84,7.1,1.59.87.29,1.73.61,2.58.95,1.51,3.55,3.11,7.07,4.76,10.56ZM70.03,73.64l-4.02-1.17c-.1.02-.26.66-.29.8-1.68,6.25-1.68,13.78.07,20,.13.45.32.88.39,1.34l3.84-1.15c1.53-3.29,3.04-6.61,4.71-9.83-1.58-3.32-3.23-6.62-4.69-10Z"/>
          <path class="cls-1" d="M69.16,102.56c-.03-.17.03-.12.14-.17,1.43-.62,3.1-.99,4.55-1.63,5.76-2.35,11.33-5.27,16.27-9.07,2.26-1.73,4.43-3.65,6.28-5.81.59-.68,1.11-1.42,1.7-2.11-.47-.58-.89-1.19-1.36-1.77-2.5-3.05-5.74-5.88-8.97-8.15-6.06-4.25-12.97-7.19-20.1-9.14l.1-.12c.9.14,1.81.2,2.71.33,9.49,1.37,18.97,4.83,27.1,9.86,4.2,2.6,8.09,5.67,11.79,8.93.03.1-.01.13-.06.2-.08.11-.36.36-.48.47-9.76,9.09-22.6,14.96-35.63,17.55l-4.04.62Z"/>
        </g>
      </g>
      <path class="cls-5" d="M159.75,42.65h-.01s.03-.02.05-.02c-.02,0-.03.01-.04.02Z"/>
      <g>
        <path class="cls-3" d="M144.96,95.57c4.13-2.89,8.18-5.89,12.11-9.04-.06,0-.11.01-.17.01-5.59,4.21-11.34,8.16-16.94,11.8-.1.29-.2.58-.31.86,1.78-1.2,3.55-2.41,5.31-3.64Z"/>
        <path class="cls-3" d="M136.04,107.27c-9.11,16.54-26.7,27.76-46.93,27.76-1.36,0-2.7-.06-4.03-.16-7.78,3.56-15.62,6.86-23.43,9.82-5.26,1.99-10.64,3.91-16.12,5.57,12.6,8.01,27.54,12.67,43.58,12.67,44.9,0,81.3-36.32,81.46-81.18-10.62,9.56-23.04,18.26-34.54,25.51ZM103.23,151.01c-.16.89-.44,1.72-.81,2.49h.02c-.87,1.78-2.27,3.22-3.97,4.14v-.02c-1.69.93-3.69,1.36-5.74,1.09h0c-.15-.01-.3-.03-.45-.06-1.36-.24-2.6-.77-3.67-1.5l-.05-.03s-.07-.05-.11-.08c-2.88-2.05-4.49-5.65-3.83-9.36,0-.03.01-.05.02-.08,0-.03.01-.06.02-.08,0-.05.02-.1.03-.15,0-.03.01-.06.02-.09.01-.05.02-.1.04-.15l.02-.07c.15-.6.35-1.18.61-1.72l.02-.04h0c.87-1.84,2.32-3.33,4.07-4.27h0c1.7-.92,3.69-1.33,5.73-1.06v.02c.13.02.27.04.4.06,1.91.34,3.58,1.23,4.88,2.48v-.03c1.42,1.36,2.4,3.14,2.77,5.09,0,0-.01.01-.02.02.2,1.09.22,2.24.01,3.39ZM144.03,118.02c1.49.69,2.66,1.65,3.61,3,.02.02.03.05.05.07-.57.04-1.13.13-1.68.26-2.63.62-4.74,2.25-6.21,4.49-1.57-.03-3.03-.46-4.31-1.39.12-.39.36-.83.54-1.15.41-.7.91-1.37,1.45-1.97,1.46-1.62,3.32-2.86,5.41-3.5.26-.07.9.09,1.13.2ZM132.63,120.98c.61-.84,1.35-1.56,2.2-2.15,1.78-1.24,3.92-1.81,6.06-1.63-1.65.79-3.1,1.96-4.31,3.34-.83.95-1.6,2.06-2.2,3.19-.68-.59-1.24-1.28-1.7-2.05h0s0-.02,0-.02c-.08-.12-.11-.26-.1-.4,0-.07.02-.21.06-.26ZM139.54,135.6c-.06.03-.16.05-.2.06-2.75-.24-5.23-1.67-6.81-3.93-.27-.39-.49-.82-.68-1.26,1.73,1.1,3.7,1.95,5.72,2.25,1.01.15,2.07.2,3.08.09-.2.99-.59,1.93-1.12,2.79ZM140.74,131.47c-1.2.15-2.5.05-3.68-.19-2.14-.45-4.11-1.42-5.84-2.74-.05-.05-.14-.19-.16-.25-.39-1.92-.16-3.93.65-5.71,1.12,1.78,2.74,3.09,4.71,3.83,1.03.39,2.18.63,3.28.68.03.01.07.04.09.06.69,1.28,1.06,2.81,1.02,4.27-.02.02-.06.05-.08.06ZM146.32,133.05c-.09.4-.57.76-.89.98-1.31.92-2.82,1.47-4.41,1.62.99-1.9,1.35-4,.98-6.13-.19-1.06-.57-2.18-1.11-3.13.28-.66,1.09-1.42,1.59-1.84.52-.43,1.11-.86,1.71-1.19.74,1.07,1.33,2.3,1.73,3.53.65,2,.81,4.08.4,6.15ZM146.87,125.63c-.38-.97-.87-1.93-1.46-2.81.91-.32,1.89-.49,2.86-.49.09,0,.25.16.28.23,1.38,2.98,1.05,6.48-.8,9.16.23-2.07-.11-4.14-.88-6.09Z"/>
        <path class="cls-3" d="M42.69,145.88c11.08-3.02,22-7.29,32.55-11.88.38-.17.76-.34,1.14-.51-.57-.14-1.13-.29-1.69-.44-4.34,1.84-8.68,3.59-13.02,5.23-7.33,2.78-14.94,5.41-22.64,7.4.37.29.76.57,1.14.86.88-.22,1.73-.44,2.53-.66Z"/>
      </g>
      <rect class="cls-3" x="91.68" y="10.02" width="1.13" height="1.13" transform="translate(10.52 54.67) rotate(-34.89)"/>
      <path class="cls-3" d="M82.55,14.6c.07.39.2.76.38,1.11l.81-.56-.64-.92-.54.38Z"/>
      <rect class="cls-3" x="89.33" y="9.6" width="1.13" height="1.13" transform="translate(10.34 53.25) rotate(-34.89)"/>
      <rect class="cls-3" x="89.89" y="13.34" width="1.13" height="1.15" transform="translate(8.33 54.3) rotate(-34.93)"/>
      <rect class="cls-3" x="91.27" y="12.37" width="1.13" height="1.15" transform="translate(9.13 54.92) rotate(-34.93)"/>
      <rect class="cls-3" x="88.35" y="8.2" width="1.13" height="1.15" transform="translate(10.97 52.44) rotate(-34.89)"/>
      <rect class="cls-3" x="88.5" y="14.31" width="1.13" height="1.15" transform="translate(7.52 53.68) rotate(-34.93)"/>
      <rect class="cls-3" x="83.78" y="13.47" width="1.13" height="1.13" transform="translate(7.13 50.77) rotate(-34.89)"/>
      <rect class="cls-3" x="85.58" y="10.13" width="1.13" height="1.15" transform="translate(9.38 51.24) rotate(-34.92)"/>
      <rect class="cls-3" x="86.97" y="9.16" width="1.13" height="1.15" transform="translate(10.19 51.88) rotate(-34.93)"/>
      <rect class="cls-3" x="84.19" y="11.1" width="1.13" height="1.15" transform="translate(8.59 50.64) rotate(-34.93)"/>
      <rect class="cls-3" x="90.3" y="10.99" width="1.13" height="1.13" transform="translate(9.72 54.05) rotate(-34.89)"/>
      <rect class="cls-3" x="88.91" y="11.96" width="1.13" height="1.13" transform="translate(8.92 53.43) rotate(-34.89)"/>
      <rect class="cls-3" x="87.52" y="12.93" width="1.13" height="1.13" transform="translate(8.12 52.81) rotate(-34.89)"/>
      <rect class="cls-3" x="87.94" y="10.57" width="1.13" height="1.13" transform="translate(9.54 52.63) rotate(-34.89)"/>
      <path class="cls-3" d="M128.95,33.16c.09.03.19.03.28.02.27-.03.51-.23.59-.51.08-.3.18-.58.28-.84l.36.52c.11.16.33.2.49.09.16-.11.2-.33.09-.49l-.59-.84c.11-.18.22-.35.33-.51.23-.31.47-.59.72-.82.12-.12.25-.22.38-.32l.5.72s.06.07.1.1c.08.05.17.07.26.05.04,0,.09-.03.13-.06.08-.06.13-.14.15-.23.02-.09,0-.18-.06-.26l-.49-.71c.71-.42,1.47-.67,2.1-.79l.57.82s.06.07.1.1c.12.07.27.08.39,0,.16-.11.2-.33.09-.49l-.37-.53c.27-.02.5-.03.67-.03.17,0,.28,0,.31,0,.39.03.74-.26.77-.65,0-.1,0-.19-.03-.28-.09-.26-.32-.46-.62-.48-.02,0-.49-.04-1.21.04-.24.02-.5.06-.79.11l-.57-.81c-.06-.08-.14-.13-.23-.15-.04,0-.09,0-.14,0-.04,0-.09.03-.13.06-.08.06-.13.14-.15.23-.02.09,0,.18.06.26l.4.57c-.33.09-.66.2-1.01.34-.34.14-.69.31-1.04.52l-.53-.76s-.06-.07-.1-.1c-.12-.07-.27-.08-.39,0-.08.06-.13.14-.15.23s0,.18.06.26l.52.75c-.39.29-.77.65-1.14,1.08-.12.15-.24.3-.36.46l-.37-.52c-.06-.08-.14-.13-.23-.15s-.18,0-.26.06c-.16.11-.2.33-.09.49l.54.77c-.28.52-.53,1.12-.72,1.8-.03.11-.03.21-.01.31.02.1.06.2.12.28.09.13.23.23.39.28Z"/>
      <path class="cls-3" d="M84.07,15.61l-.83.58c.23.31.51.58.83.8l.64-.45-.64-.92Z"/>
      <rect class="cls-3" x="86.13" y="13.89" width="1.13" height="1.13" transform="translate(7.32 52.19) rotate(-34.89)"/>
      <rect class="cls-3" x="87.11" y="15.28" width="1.13" height="1.15" transform="translate(6.72 53.06) rotate(-34.93)"/>
      <rect class="cls-3" x="84.75" y="14.86" width="1.13" height="1.13" transform="translate(6.51 51.57) rotate(-34.89)"/>
      <rect class="cls-3" x="85.17" y="12.51" width="1.13" height="1.13" transform="translate(7.93 51.39) rotate(-34.89)"/>
      <rect class="cls-3" x="86.55" y="11.54" width="1.13" height="1.13" transform="translate(8.74 52.01) rotate(-34.89)"/>
      <path class="cls-3" d="M97.55,155.23c-.59-.13-2.35-1.03-2.95-.92-.61.11-2.16,1.65-2.46,1.95-.31.31-.49.39-.3.73.09.15.3.57.52.99.01,0,.03,0,.04,0,2.26.4,4.47-.1,6.26-1.25.02-.13.04-.26.06-.41.14-1.09-.58-.97-1.17-1.1Z"/>
      <path class="cls-3" d="M82.48,13.33c-.01.21-.01.42,0,.64l.3-.21-.3-.43Z"/>
      <path class="cls-3" d="M80.94,18.31c.78.02,1.56-.01,2.34-.08.09,0,.17-.02.26-.03-.69-.35-1.28-.85-1.73-1.47-.36-.53-.61-1.13-.72-1.76-.03.07-.06.13-.1.2h0c-.35.71-.67,1.4-.95,1.99l.05-.03.86,1.19Z"/>
      <path class="cls-3" d="M84.16,12.79l-.66-.94-.9.63s0,.02,0,.03h0s.65.93.65.93l.92-.64Z"/>
      <path class="cls-3" d="M85.98,9.49l-.67-.96s-.06.04-.09.06h0c-.28.2-.54.41-.79.65l.63.9.92-.64Z"/>
      <path class="cls-3" d="M34.05,141.5c1.85-.35,3.64-.75,5.33-1.17-.32-.24-.62-.5-.91-.79-.39-.39-.75-.82-1.08-1.29-.14-.21-.28-.42-.41-.63-.5-.86-.85-1.77-1.05-2.71-.05-.23-.09-.47-.12-.7-.06-.47-.09-.94-.09-1.42,2.32.03,4.67-.63,6.71-2.05.31-.21.6-.44.88-.68,1.96-1.67,3.23-3.9,3.75-6.29.83.18,1.64.48,2.4.88.25.13.5.28.74.44.72.47,1.39,1.05,1.98,1.74.19.23.38.47.56.72,1.31,1.87,1.83,4.06,1.64,6.17-1.26-.08-2.53.04-3.77.37-1.24.33-2.44.88-3.55,1.66-.56.39-1.07.82-1.53,1.28-.64.64-1.19,1.35-1.65,2.1,1.26-.35,2.51-.72,3.76-1.1.21-.18.41-.37.64-.53.65-.45,1.33-.81,2.03-1.07,1.17-.44,2.41-.63,3.63-.59-.02.06-.04.11-.06.16,4.74-1.63,9.43-3.42,14.06-5.32-19.04-8.21-32.38-27.15-32.38-49.2,0-29.58,23.98-53.57,53.57-53.57s53.57,23.98,53.57,53.57c0,3.38-.33,6.68-.93,9.89,1.07-.73,2.14-1.47,3.2-2.21,2.07-1.45,4.12-2.93,6.14-4.44-.31-.24-.62-.5-.9-.78,3.48-1.49,6.65-3.69,9.26-6.43.06.03.11.05.17.08.13.05.25.07.38.1.36-.3.73-.6,1.09-.91-.36.07-.74.04-1.1-.11-.96-.4-1.42-1.5-1.02-2.47.4-.96,1.5-1.42,2.47-1.02.95.39,1.4,1.46,1.04,2.41.35-.3.71-.63,1.09-.96-.06-.58-.27-1.13-.65-1.57.24-.4.42-.84.54-1.29.48.57.89,1.2,1.21,1.87,1.55-1.41,3.23-3.02,4.93-4.76C163.56,29.86,129.83,0,89.12,0,44.13,0,7.65,36.47,7.65,81.47c0,23.76,10.18,45.14,26.4,60.03ZM36.89,128.36c.53-.97,1.25-1.86,2.13-2.61.22-.19.45-.37.7-.53.4-.28.81-.52,1.23-.73,1.27-.62,2.63-.93,3.99-.95-.13.53-.31,1.06-.53,1.56-.33.76-.77,1.48-1.3,2.13s-1.16,1.25-1.89,1.75c-.4.28-.81.52-1.23.73-1.27.62-2.63.93-3.99.95.2-.8.5-1.58.9-2.3ZM160.03,69.24c.96.4,1.84.95,2.61,1.65-.06.52-.22,1.05-.47,1.52-.1-.06-.21-.11-.32-.16-.38-.16-.77-.23-1.16-.22-.6-1.23-1.52-2.48-2.6-3.36.67.11,1.32.3,1.95.56ZM155.94,68.58c.72.24,1.42.74,1.96,1.26.73.69,1.32,1.52,1.78,2.41-.48.19-.9.5-1.22.92-3.16-.93-6.52-.95-9.7-.06,1.49-2.61,4.18-4.32,7.18-4.53ZM148.18,74.32c3.17-1.08,6.6-1.16,9.81-.26-.32,1.02-.04,2.11.67,2.85-2.58,2.68-5.71,4.82-9.15,6.24-.94-1.19-1.57-2.6-1.82-4.1-.27-1.59-.1-3.23.49-4.73ZM140.34,25.95c.19.15.34.3.44.45.45.65.65,2.03.49,3.64-.58-1.5-1.4-2.77-2.18-3.77-.47-.6-.94-1.11-1.34-1.51,1.1.3,2.02.74,2.59,1.19ZM126.76,29.79c.59-1.54,1.55-3.02,2.99-4.02.25-.17.5-.33.77-.47,1.84-.97,3.99-1.1,5.87-.82.23.19.56.5.96.91.4.41.85.92,1.31,1.52.46.6.92,1.3,1.33,2.07.2.39.4.8.57,1.22s.32.87.45,1.34c-.06.25-.13.51-.21.76-.08.25-.17.51-.27.76-.4,1.01-.95,1.98-1.7,2.81-.37.41-.79.79-1.26,1.12-1.11.78-2.37,1.21-3.64,1.4-.76.11-1.52.13-2.25.08-1.31-.86-2.34-1.94-3.15-3-1.34-1.77-2.02-3.5-2.24-4.12.12-.51.27-1.04.47-1.55ZM126.07,32.69c.08.19.18.38.28.59.31.63.73,1.36,1.25,2.12.67.96,1.53,1.96,2.6,2.85-1.07-.23-2.01-.6-2.71-1.05-.42-.27-.75-.56-.96-.87-.17-.24-.3-.58-.39-1.01-.06-.28-.1-.6-.13-.94-.01-.17-.02-.35-.02-.54,0-.37.02-.76.06-1.17ZM73.85,20.51s0,0,0,0l.51-.35.15.21.15.21s.07,0,.11,0c.07,0,.14-.02.21-.05.03-.01.07-.02.1-.04l-.16.11-.16.11h0s3.91-2.64,3.91-2.64c.2-.14.29-.39.22-.62l-.08-.11.02-.03s0-.02-.02-.03l.02.03c.82-1.24,1.51-2.57,2.04-3.97.09-.22.18-.44.26-.64.47-2.06,1.69-3.86,3.43-5.05,1.67-1.16,3.43-1.86,5.11-1.75l-.02-.04.03.04c.39.03.77.1,1.14.22l.05-.04.05.07c1.31.49,2.43,1.4,3.18,2.58,2.74,3.9.63,6.5-2.62,8.75h-.02c-.56.43-1.19.75-1.86.96-.52.18-1.05.32-1.59.4-.44.08-.93.14-1.46.18l-.05.03-.02-.03c-.57.04-1.2.07-1.89.06-1.05-.04-2.09.04-3.12.23-.34.06-.68.14-1.02.23l.04.06s-.04-.04-.06-.05c-.06.02-.1.03-.1.03l-.13-.18c-.09-.03-.18-.04-.27-.04-.09,0-.18.04-.26.09l.32-.21-3.97,2.69c-.09.08-.15.18-.17.3l.15.21.15.21-.51.35c-.07.05-.15.08-.23.1-.08.02-.16.02-.24,0-.16-.03-.3-.11-.4-.25l-1.06-1.51c-.05-.07-.08-.14-.1-.22-.05-.23.04-.48.24-.63ZM39.9,25.26c.16-.17.33-.32.53-.45.39-.27.82-.45,1.25-.54s.89-.1,1.32-.02c.65.12,1.27.42,1.77.89.17.16.32.33.45.53.41.58.61,1.25.62,1.92,0,.44-.07.88-.23,1.29-.16.41-.4.8-.71,1.13-.16.17-.33.32-.53.45-.39.27-.82.45-1.25.54-.44.09-.89.1-1.32.02-.65-.12-1.27-.42-1.77-.89-.17-.16-.32-.33-.45-.53-.95-1.36-.78-3.18.33-4.34ZM25.6,40.02c.03-.13.09-.25.16-.36l2.84-4.57c.86-1.37,2.15-2.38,3.63-2.88.89-.3,1.84-.43,2.81-.34l13.22,1.14c-.23.29-.43.6-.59.89-.16.29-.31.6-.45.9-.14.31-.27.62-.4.92-.54,1.23-1,2.13-1.77,2.67-.34.24-.53.23-.79.1-.09-.04-.18-.1-.3-.16-.23-.13-.6-.33-1.06-.45-.15-.04-.31-.07-.48-.09-.6-.06-1.18.06-1.76.35-.19.1-.39.21-.58.35-.74.51-1.25,1.15-1.64,1.79-.19.32-.35.64-.49.95-.07.16-.13.31-.19.46-.06.15-.12.29-.17.43-.18.47-.36.96-.61,1.41-.24.45-.55.86-.97,1.16-.24.17-.46.24-.67.24-.21,0-.43-.07-.7-.18-.27-.12-.84-.39-1.42-.48-.22-.03-.45-.05-.67-.03l3.36-7.87-1.08-.19-1.08-.19c-1.03-.18-2.07.23-2.69,1.07l-1.54,2.06-1.54,2.06c-.21.28-.49.45-.79.51-.1.02-.2.03-.31.03-.41,0-.82-.2-1.08-.58-.23-.33-.3-.74-.2-1.12ZM24.44,77.65c1.13.3,2.16.79,3.07,1.43.68.48,1.28,1.04,1.81,1.66.17.21.34.42.49.65-1.19.72-2.49,1.21-3.84,1.41-.81.12-1.63.14-2.45.04l.93-5.19ZM22.25,77.38c.29,0,.58.01.87.04l-.46,2.6-.46,2.6c-.27-.06-.53-.14-.79-.23-1.82-.6-3.41-1.73-4.61-3.31,1.56-1.09,3.45-1.7,5.46-1.69ZM14.86,80.87c.28-.34.58-.67.91-.97.38.51.81.98,1.27,1.41.23.21.47.42.72.61.49.38,1.02.72,1.57,1.02.83.44,1.72.77,2.64.99l-.36,2.04-4.24-.76-4.24-.76c.29-1.32.9-2.55,1.74-3.58ZM19.85,95.76c-.28-.07-.56-.15-.83-.24-.27-.09-.54-.2-.79-.31-.51-.23-1-.51-1.45-.82-.91-.63-1.68-1.41-2.3-2.3,1.43-.86,3.02-1.39,4.65-1.5.54-.03,1.09-.02,1.64.04l-.91,5.13ZM18.18,89.33c-1.55.21-3.04.75-4.39,1.62-.55-1.17-.89-2.49-.95-3.83-.02-.45,0-.9.04-1.35l8.48,1.51-.36,2.04c-.95-.12-1.89-.11-2.82.01ZM26.08,95.19c-.74.36-1.54.61-2.36.75-.82.14-1.68.16-2.55.06l.93-5.19c.54.13,1.06.3,1.56.52.5.22.98.47,1.44.77s.89.64,1.29,1.01c.4.38.78.79,1.12,1.24-.45.33-.92.61-1.42.85ZM30.18,91.54c-.45.76-1.01,1.44-1.66,2.04-.38-.51-.81-.98-1.27-1.41-.92-.85-1.98-1.54-3.14-2.03-.58-.24-1.18-.44-1.8-.59l.36-2.04,8.48,1.51c-.2.91-.53,1.75-.98,2.51ZM31.39,87.71l-8.48-1.51.36-2.04c.32.04.63.06.95.08,1.26.05,2.51-.12,3.7-.5.89-.28,1.75-.69,2.56-1.21.74,1.56,1.09,3.38.91,5.18ZM30.66,54.63c-.37-.07-.69-.28-.89-.57-.1-.14-.17-.31-.21-.48-.02-.09-.03-.18-.03-.27,0-.09,0-.18.02-.28.07-.39.16-.77.26-1.15.1-.38.22-.76.35-1.12.21-.6.49-1.28.85-1.91.18-.31.38-.62.63-.92.25-.3.53-.58.86-.8.18-.13.36-.23.55-.31.55-.24,1.1-.3,1.63-.21.25.04.5.11.73.2.11.04.22.08.31.12.1.04.18.08.26.11.13.06.26.12.4.17s.27.09.42.09c.05,0,.13,0,.24-.04.11-.04.25-.1.43-.23.18-.13.34-.27.49-.43.28-.32.5-.72.72-1.22.11-.25.22-.52.34-.82.21-.54.44-1.07.7-1.57.09-.17.18-.33.28-.49.2-.32.42-.62.68-.9.13-.14.26-.27.41-.4s.3-.25.46-.36c.19-.13.38-.25.58-.35.58-.29,1.16-.41,1.76-.35.34.03.65.13.91.23.26.11.48.22.63.31.33.18.53.29.8.21.09-.03.18-.08.29-.15.77-.54,1.24-1.43,1.77-2.67.13-.31.26-.62.4-.92.14-.31.28-.61.45-.9.25-.45.56-.92.99-1.33.14-.14.3-.26.46-.38.68-.47,1.42-.66,2.11-.7.52-.03,1.02.02,1.44.11.14.03.28.06.4.09.16.04.32.1.48.15.48.15.96.33,1.4.56.65.35.91,1.22.56,1.87-.23.42-.64.67-1.08.71-.26.03-.54-.02-.79-.16-.1-.05-.2-.09-.3-.13-.3-.13-.62-.25-.94-.33-.2-.05-.38-.08-.55-.1s-.33-.02-.47-.02c-.29.02-.52.09-.69.21-.04.03-.09.07-.14.11-.09.09-.2.21-.31.38-.06.08-.11.18-.17.29-.07.13-.13.26-.19.39-.19.39-.37.79-.54,1.19-.19.44-.41.94-.69,1.45-.19.34-.4.68-.65,1.02-.37.5-.82.97-1.38,1.36-.19.13-.38.25-.58.35-.58.29-1.16.41-1.76.35-.14-.01-.28-.04-.42-.07-.14-.03-.27-.08-.4-.13-.26-.1-.52-.23-.77-.36-.42-.23-.63-.31-1.04-.03-.86.6-1.22,1.64-1.58,2.57-.05.14-.11.28-.17.43-.42,1.04-1.03,2.3-2.32,3.2-.19.13-.38.25-.58.35-.38.2-.77.32-1.15.38-.19.03-.38.04-.58.04-.18,0-.35-.02-.52-.05-.49-.08-.9-.25-1.2-.38-.2-.08-.37-.14-.53-.15-.47-.05-.78.2-1.1.76-.12.21-.24.44-.34.69s-.2.49-.29.75c-.1.3-.2.61-.28.92-.08.31-.16.62-.21.94-.05.28-.18.53-.37.72-.12.13-.27.23-.43.3-.24.11-.52.15-.8.1Z"/>
      <path class="cls-3" d="M84.59,10.46l-.56-.81c-.26.3-.49.63-.69.97l.33.48.92-.64Z"/>
      <path class="cls-3" d="M87.37,8.52l-.5-.71.46-.32.5.72,1.6-1.11c-1.3.01-2.57.41-3.64,1.13l.66.94.92-.64Z"/>
      <path class="cls-3" d="M83.03,11.18c-.08.17-.14.34-.2.51l.38-.26-.17-.25Z"/>
      <path class="cls-3" d="M101.51,146.88c-.46-.08-1.93,2.05-2.21,2.56-.28.51-.38.57-.41.73-.03.16.84,2.32,1.03,2.83.19.51.45.78,1.22.64.19-.03.35-.07.49-.09.44-.81.76-1.7.93-2.65.22-1.22.17-2.43-.1-3.57-.32-.21-.62-.38-.95-.43Z"/>
      <path class="cls-3" d="M97.21,150.43c.31-.33.37-.69.1-1.18-.27-.49-1.27-2.26-1.49-2.74-.22-.48-.67-.45-1.34-.29-.67.16-2.01.34-2.52.39-.51.05-.76.23-.87.99-.11.76-.43,3.49-.43,3.49l3.8,1.96s2.44-2.27,2.75-2.6Z"/>
      <path class="cls-3" d="M96.25,145.03c.18.09,2.16-.12,3.12-.17.96-.05.86-.77.96-1.33,0-.05.02-.09.02-.14-1.25-1.35-2.93-2.32-4.88-2.67-.25-.04-.5-.08-.74-.1-.15.17-.32.33-.48.46-.4.35-.57.4-.32.83.26.44,2.13,3.03,2.31,3.11Z"/>
      <path class="cls-3" d="M91.25,142.02c-.24-.15-.66-.38-1.05-.59-1.9.9-3.46,2.48-4.32,4.47h0c.17.48.27,1.14.81,1.24.54.1,3.18-.63,3.6-1.17.43-.54.45-1.26.71-1.96.26-.7.74-1.68.24-1.99Z"/>
      <path class="cls-3" d="M84.59,17.3c.29.15.59.26.9.35l-.46-.66-.44.31Z"/>
      <path class="cls-3" d="M89.61,152.73c.06-.96-.13-1.28-.78-1.7-.65-.42-1.89-1.45-2.29-1.52-.33-.06-.92.57-1.31.97.28,2.15,1.35,4.1,2.95,5.5.42-.08.93-.05,1.21-.11.49-.11.16-2.17.22-3.13Z"/>
      <path class="cls-3" d="M87.84,17.07l.42.61c.39-.09.76-.2,1.13-.35l-.63-.9-.92.64Z"/>
      <path class="cls-3" d="M89.22,16.1l.69.98c.31-.16.62-.33.9-.53.02-.02.04-.03.07-.05l-.73-1.05-.92.64Z"/>
      <path class="cls-3" d="M91.53,14.49l-.92.64.72,1.04c.31-.23.61-.47.88-.71h0s-.68-.97-.68-.97Z"/>
      <path class="cls-3" d="M92.92,13.52l-.92.64.63.9c.28-.27.53-.57.76-.88h0s-.46-.66-.46-.66Z"/>
      <path class="cls-3" d="M86.76,17.82c.3,0,.6,0,.89-.04l-.27-.39-.62.43Z"/>
      <rect class="cls-3" x="85.72" y="16.24" width="1.13" height="1.15" transform="translate(5.89 52.38) rotate(-34.89)"/>
      <path class="cls-3" d="M93.7,13.65c.15-.28.26-.59.32-.9h0s-.64.45-.64.45l.32.45Z"/>
      <path class="cls-3" d="M91.1,7.95l-.44-.63c-.16-.05-.31-.1-.48-.13l-.67.47.66.95.92-.64Z"/>
      <path class="cls-3" d="M92.75,8.86c-.25-.29-.52-.56-.82-.8l-.04.03.64.92.22-.15Z"/>
      <rect class="cls-3" x="90.71" y="8.63" width="1.13" height="1.13" transform="translate(11.15 53.87) rotate(-34.89)"/>
      <path class="cls-3" d="M93.5,10.4l.17-.12c-.16-.33-.34-.64-.56-.94h0c-.05-.08-.11-.14-.16-.22l.13.19-.23.16.64.92Z"/>
      <path class="cls-3" d="M93.89,10.82h0s-.07.05-.07.05l.16.23c-.03-.09-.06-.18-.09-.28Z"/>
      <rect class="cls-3" x="92.66" y="11.41" width="1.13" height="1.15" transform="translate(9.93 55.54) rotate(-34.93)"/>
      <path class="cls-7" d="M159.79,42.63s-.03.01-.04.02h-.01s.03-.02.05-.02Z"/>
      <path class="cls-6" d="M192.34,48.18c-.82,5.3-4.66,11.21-7.82,15.16-4.02,5.04-8.8,9.94-14.01,14.63-12.06,10.85-26.45,20.59-39.14,28.36-21.74,13.31-45.84,25.47-69.71,34.52-6.54,2.48-13.29,4.84-20.14,6.73-6.12,1.7-12.32,3.03-18.51,3.74-7.23.82-21.01,1.19-22.82-7.95-.08-.41-.14-.84-.17-1.29-.04-.6-.02-1.21.07-1.85v-.04c.88-7.01,8.54-16.13,13.57-21.48h0c.54-.57,1.03-1.08,1.49-1.55.09-.1.26-.26.48-.46.42.87.86,1.74,1.31,2.6.22.43.45.85.68,1.27-.96,1.18-2.04,2.62-2.29,2.97-2.29,3.13-4.62,7.38-5.06,11.3v.02h0c-.14,1.09-.12,2.14.09,3.14.53,2.55,2.27,4.72,5.89,6,5.65,2,13.46,1.04,20.16-.42,2.26-.49,4.39-1.04,6.27-1.55,11.08-3.02,22-7.29,32.55-11.88,4.68-2.04,9.33-4.17,13.93-6.37,6.5-3.11,12.93-6.38,19.27-9.8,3.07-1.65,6.17-3.3,9.18-5.06,2.98-1.75,5.93-3.55,8.92-5.28,6.34-3.67,12.42-7.73,18.42-11.92,5.81-4.06,11.47-8.33,16.83-12.96,2.24-1.93,5.2-4.61,8.15-7.66,5.43-5.61,10.86-12.49,11.87-18.3.08-.44.14-.87.16-1.3.04-.69.02-1.33-.06-1.93h0v-.03c-1.08-8.44-12.96-8.4-19.63-7.45-.19.03-.55.08-.95.15-.24.04-.48.09-.71.13-.62-1.12-1.26-2.22-1.92-3.31.04-.01.09-.02.14-.03,8.09-2.15,17.36-4,25.59-1.81,5.34,1.43,7.59,4.29,8,7.72v.02h0c.13,1.03.09,2.11-.09,3.22Z"/>
    </g>
  </g>
</svg>